HIERARCHY
ROOT Hips
{
    OFFSET 0.000000 0.000000 0.000000
    CHANNELS 6 Xposition Yposition Zposition Zrotation Xrotation Yrotation
    JOINT Spine
    {
        OFFSET -0.000000 14.517291 0.000000
        CHANNELS 3 Zrotation Xrotation Yrotation
        JOINT Spine1
        {
            OFFSET -0.000000 37.558300 0.000000
            CHANNELS 3 Zrotation Xrotation Yrotation
            JOINT Neck
            {
                OFFSET -0.000000 37.404057 3.400369
                CHANNELS 3 Zrotation Xrotation Yrotation
                JOINT Head
                {
                    OFFSET -0.000000 24.785618 -3.540803
                    CHANNELS 3 Zrotation Xrotation Yrotation
                    End Site
                    {
                        OFFSET -0.000000 35.408028 0.000000
                    }
                }
            }
            JOINT LeftShoulder
            {
                OFFSET 6.992933 33.973492 -0.192664
                CHANNELS 3 Zrotation Xrotation Yrotation
                JOINT LeftArm
                {
                    OFFSET 21.527611 0.000000 0.000000
                    CHANNELS 3 Zrotation Xrotation Yrotation
                    JOINT LeftForeArm
                    {
                        OFFSET 56.353916 0.000000 0.000000
                        CHANNELS 3 Zrotation Xrotation Yrotation
                        JOINT LeftHand
                        {
                            OFFSET 47.774071 0.000000 0.000000
                            CHANNELS 3 Zrotation Xrotation Yrotation
                            End Site
                            {
                                OFFSET 26.556021 0.000000 0.000000
                            }
                        }
                    }
                }
            }
            JOINT RightShoulder
            {
                OFFSET -7.065357 33.973492 -0.192664
                CHANNELS 3 Zrotation Xrotation Yrotation
                JOINT RightArm
                {
                    OFFSET -21.527611 0.000000 0.000000
                    CHANNELS 3 Zrotation Xrotation Yrotation
                    JOINT RightForeArm
                    {
                        OFFSET -56.353916 0.000000 0.000000
                        CHANNELS 3 Zrotation Xrotation Yrotation
                        JOINT RightHand
                        {
                            OFFSET -47.774071 0.000000 0.000000
                            CHANNELS 3 Zrotation Xrotation Yrotation
                            End Site
                            {
                                OFFSET -26.556021 0.000000 0.000000
                            }
                        }
                    }
                }
            }
        }
    }
    JOINT LeftUpLeg
    {
        OFFSET 17.704014 0.000000 0.000000
        CHANNELS 3 Zrotation Xrotation Yrotation
        JOINT LeftLeg
        {
            OFFSET -0.000000 -81.181816 0.000000
            CHANNELS 3 Zrotation Xrotation Yrotation
            JOINT LeftFoot
            {
                OFFSET -0.000000 -62.821102 0.000000
                CHANNELS 3 Zrotation Xrotation Yrotation
                JOINT LeftToeBase
                {
                    OFFSET -0.000000 -11.507608 26.556021
                    CHANNELS 3 Zrotation Xrotation Yrotation
                    End Site
                    {
                        OFFSET -0.000000 0.000000 7.081605
                    }
                }
            }
        }
    }
    JOINT RightUpLeg
    {
        OFFSET -17.704014 0.000000 0.000000
        CHANNELS 3 Zrotation Xrotation Yrotation
        JOINT RightLeg
        {
            OFFSET -0.000000 -81.181816 0.000000
            CHANNELS 3 Zrotation Xrotation Yrotation
            JOINT RightFoot
            {
                OFFSET -0.000000 -62.821102 0.000000
                CHANNELS 3 Zrotation Xrotation Yrotation
                JOINT RightToeBase
                {
                    OFFSET -0.000000 -11.507608 26.556021
                    CHANNELS 3 Zrotation Xrotation Yrotation
                    End Site
                    {
                        OFFSET -0.000000 0.000000 7.081605
                    }
                }
            }
        }
    }
}
MOTION
Frames:    11
Frame Time:    0.008333
-30.098408    150.776855    -14.958456    0.776425    0.037375    -30.894976    1.409542    0.147465    0.430949    -0.692661    0.926364    0.148533    17.890844    2.001347    14.302027    -10.038415    1.928436    11.285210    0.766115    9.986217    -12.198937    -37.238312    10.244131    -33.734745    33.169239    -44.134888    -49.166687    -19.701509    -27.081825    -30.471825    -5.022343    5.570474    -4.933249    38.144814    10.319344    72.016228    5.280267    -9.969928    97.150993    8.074542    -14.558467    18.216650    28.108011    -16.630573    3.330364    -16.277205    28.415966    -3.933457    -14.631234    -11.350327    32.029007    0.000000    0.000000    0.000000    -24.589077    3.979873    -7.172293    2.391246    5.260675    -8.868130    18.301191    -1.712916    -12.610634    0.000000    0.000000    0.000000    
-30.099640    150.779984    -14.971299    0.777650    0.045581    -30.882959    1.404106    0.157606    0.420656    -0.683985    0.925135    0.145015    17.902906    2.011824    14.296901    -10.059669    1.921739    11.276699    0.762696    9.989364    -12.211320    -37.220860    10.263683    -33.731483    33.222305    -44.161762    -49.138840    -19.690935    -27.102388    -30.474667    -5.023197    5.565128    -4.934621    38.135250    10.321730    72.005951    5.270037    -9.977580    97.146683    8.079484    -14.553984    18.212078    28.111155    -16.640802    3.320495    -16.283430    28.393764    -3.908848    -14.621308    -11.319824    32.023941    0.000000    0.000000    0.000000    -24.584694    3.970870    -7.176154    2.395593    5.274172    -8.875373    18.304878    -1.715411    -12.609519    0.000000    0.000000    0.000000    
-30.101151    150.782806    -14.980006    0.778926    0.050253    -30.871752    1.399902    0.164526    0.408628    -0.678123    0.930932    0.140995    17.886450    2.016149    14.292636    -10.040886    1.917142    11.277086    0.764175    9.989661    -12.222425    -37.228848    10.229319    -33.726658    33.199612    -44.152122    -49.170372    -19.691153    -27.090927    -30.470945    -5.026963    5.555804    -4.932833    38.129925    10.321950    71.991287    5.261985    -9.976134    97.144394    8.078886    -14.543978    18.203707    28.109966    -16.648066    3.322126    -16.274473    28.381527    -3.924729    -14.632740    -11.316719    32.038437    0.000000    0.000000    0.000000    -24.584621    3.969018    -7.164241    2.409273    5.273719    -8.888005    18.289217    -1.717531    -12.627184    0.000000    0.000000    0.000000    
-30.099756    150.785599    -14.990375    0.779604    0.055792    -30.863020    1.397671    0.178640    0.399872    -0.667954    0.926099    0.138279    17.874317    2.032080    14.284864    -10.036749    1.904737    11.272627    0.754341    9.992312    -12.224799    -37.220070    10.232863    -33.732376    33.228031    -44.156300    -49.155079    -19.714220    -27.080862    -30.480690    -5.035985    5.557356    -4.938022    38.147030    10.300295    71.985390    5.286087    -9.935476    97.137154    8.059265    -14.532262    18.209038    28.110090    -16.655685    3.324393    -16.263863    28.371677    -3.941218    -14.636799    -11.310246    32.039227    0.000000    0.000000    0.000000    -24.582655    3.959680    -7.168871    2.410845    5.288433    -8.855270    18.280619    -1.729447    -12.648389    0.000000    0.000000    0.000000    
-30.097002    150.789810    -15.003101    0.786020    0.063409    -30.852354    1.396383    0.184752    0.390888    -0.671141    0.923340    0.135215    17.858616    2.043831    14.273760    -10.011909    1.895605    11.267299    0.755963    9.997650    -12.237568    -37.229271    10.197979    -33.729126    33.194210    -44.138306    -49.190826    -19.710991    -27.062071    -30.485811    -5.030283    5.550757    -4.932532    38.135338    10.300494    71.968628    5.274679    -9.937692    97.130150    8.045375    -14.522799    18.218708    28.105009    -16.666344    3.325042    -16.251692    28.352095    -3.936271    -14.639627    -11.285435    32.033043    0.000000    0.000000    0.000000    -24.582497    3.950933    -7.154766    2.418574    5.287894    -8.896503    18.274706    -1.725260    -12.647601    0.000000    0.000000    0.000000    
-30.097940    150.793701    -15.016047    0.787445    0.072150    -30.841265    1.397462    0.192835    0.384897    -0.674531    0.919192    0.133079    17.882996    2.044530    14.279296    -10.032926    1.922831    11.269694    0.765547    10.004893    -12.245009    -37.235600    10.179417    -33.739929    33.175282    -44.126656    -49.211700    -19.712303    -27.048262    -30.490294    -5.021641    5.559469    -4.944700    38.132076    10.288927    71.971313    5.287131    -9.923425    97.126266    8.045209    -14.523563    18.197935    28.106884    -16.680742    3.332896    -16.243395    28.344484    -3.943955    -14.646237    -11.268192    32.041965    0.000000    0.000000    0.000000    -24.574015    3.946473    -7.165239    2.416644    5.283333    -8.900535    18.255390    -1.712040    -12.639684    0.000000    0.000000    0.000000    
-30.095419    150.798080    -15.025284    0.796839    0.079363    -30.836992    1.389593    0.195402    0.382153    -0.663042    0.921455    0.132091    17.853167    2.045341    14.272964    -10.005786    1.925005    11.270768    0.752943    9.993758    -12.253604    -37.248604    10.156507    -33.728428    33.127586    -44.107853    -49.261585    -19.712996    -27.031813    -30.479546    -5.036881    5.547907    -4.955580    38.140125    10.303994    71.964211    5.283129    -9.918569    97.127533    8.038900    -14.516577    18.175821    28.098787    -16.690594    3.349459    -16.226866    28.334719    -3.946704    -14.649245    -11.250960    32.025738    0.000000    0.000000    0.000000    -24.577705    3.934048    -7.164316    2.417552    5.287030    -8.892844    18.273338    -1.717045    -12.663617    0.000000    0.000000    0.000000    
-30.094469    150.801056    -15.034210    0.799956    0.087490    -30.828495    1.399199    0.195382    0.376142    -0.672759    0.922404    0.129966    17.861973    2.044831    14.269609    -10.015287    1.960237    11.267877    0.756751    10.011657    -12.254231    -37.239792    10.167370    -33.747887    33.147587    -44.112614    -49.242676    -19.711239    -27.036566    -30.471382    -5.037508    5.556167    -4.954514    38.135670    10.299408    71.960785    5.297940    -9.913841    97.128380    8.008442    -14.532888    18.179827    28.097250    -16.698009    3.337447    -16.218054    28.316133    -3.948667    -14.662855    -11.243326    32.024796    0.000000    0.000000    0.000000    -24.574169    3.930874    -7.167209    2.421767    5.279555    -8.881422    18.266781    -1.726141    -12.686819    0.000000    0.000000    0.000000    
-30.090782    150.805359    -15.046479    0.809563    0.100363    -30.817362    1.400420    0.194477    0.375046    -0.676106    0.919125    0.129609    17.850750    2.052375    14.266675    -9.997912    1.965002    11.270111    0.761070    10.010429    -12.270666    -37.246246    10.168249    -33.743721    33.127975    -44.103531    -49.263779    -19.712881    -27.027946    -30.464687    -5.040509    5.554692    -4.967983    38.126804    10.314831    71.954514    5.297723    -9.927135    97.139221    8.015587    -14.545417    18.187326    28.091560    -16.720520    3.338027    -16.207771    28.308737    -3.959284    -14.665147    -11.228083    32.033916    0.000000    0.000000    0.000000    -24.575443    3.917920    -7.174876    2.426806    5.282873    -8.888532    18.273157    -1.724992    -12.691272    0.000000    0.000000    0.000000    
-30.087128    150.809982    -15.052682    0.810889    0.099711    -30.812307    1.409818    0.197281    0.375198    -0.686695    0.934324    0.130114    17.861645    2.059288    14.272436    -10.015747    1.970272    11.274054    0.764793    10.007504    -12.277440    -37.242546    10.190439    -33.748714    33.117153    -44.112415    -49.270512    -19.681923    -27.050190    -30.459879    -5.042480    5.545393    -4.972241    38.132729    10.316696    71.945007    5.311994    -9.916780    97.144096    8.001020    -14.552843    18.196686    28.085232    -16.721630    3.327879    -16.203861    28.295742    -3.962907    -14.666117    -11.222756    32.046749    0.000000    0.000000    0.000000    -24.575966    3.916853    -7.189059    2.425523    5.284948    -8.866516    18.266901    -1.722950    -12.705883    0.000000    0.000000    0.000000    
-30.086002    150.811462    -15.058684    0.817754    0.102114    -30.805037    1.404415    0.199592    0.373838    -0.682415    0.933983    0.129530    17.859684    2.054240    14.272307    -10.018206    2.006562    11.276217    0.762839    10.021256    -12.279360    -37.238647    10.207281    -33.765156    33.130608    -44.111778    -49.258022    -19.718925    -27.036434    -30.470224    -5.045364    5.540875    -4.970122    38.130779    10.323218    71.928490    5.310161    -9.917352    97.157753    7.990644    -14.554765    18.190416    28.076851    -16.726244    3.315216    -16.200155    28.278708    -3.966943    -14.658537    -11.212044    32.051025    0.000000    0.000000    0.000000    -24.580692    3.916603    -7.190224    2.429778    5.277133    -8.879992    18.255808    -1.717452    -12.692309    0.000000    0.000000    0.000000    
